<svg xmlns="http://www.w3.org/2000/svg" viewBox="0 0 61.24799999999999 23.952" class="LogoWithInformation_logoBase__2JXvx LogoWithInformation_logoWide__2RDO7"><path fill="currentColor" fill-rule="nonzero" d="M2.23 15.29L2.23 15.29L2.23 1.13L0.29 0.86Q0.14 0.43 0.29 0L0.29 0L3.58 0.07L13.27 0.07L13.30 5.64Q12.77 5.74 12.41 5.64L12.41 5.64L11.28 1.30L4.80 1.30L4.80 8.50L8.64 8.42L9.19 6.07Q9.55 5.98 10.08 6.07L10.08 6.07Q9.98 7.42 9.98 9.17L9.98 9.17Q9.98 10.78 10.06 12.29L10.06 12.29Q9.62 12.43 9.19 12.29L9.19 12.29L8.66 9.79L4.80 9.72L4.80 17.95L12 17.95L13.13 13.61Q13.49 13.51 14.02 13.61L14.02 13.61L13.99 19.18L3.58 19.18L0.14 19.25Q0 18.82 0.14 18.38L0.14 18.38L2.14 18.12Q2.23 16.90 2.23 15.29ZM40.15 15.67L40.15 15.67L40.20 15.67Q40.44 14.69 41.35 11.69L41.35 11.69L44.69 1.13L42.74 0.89L42.74 0Q44.06 0.10 45.29 0.10L45.29 0.10Q46.34 0.10 47.88 0.02L47.88 0.02L47.88 0.89L46.30 1.18Q45.91 1.75 45.34 3.31L45.34 3.31L39.89 19.90L39.26 19.90L34.66 6.46L29.62 19.92L28.97 19.90L22.75 1.13L20.81 0.89Q20.71 0.53 20.81 0L20.81 0Q22.13 0.10 24.24 0.10L24.24 0.10Q26.18 0.10 27.72 0.02L27.72 0.02Q27.86 0.46 27.72 0.89L27.72 0.89L25.73 1.18L28.90 11.81Q29.50 13.97 29.93 15.86L29.93 15.86L29.98 15.86Q30.46 14.28 31.37 11.81L31.37 11.81L34.01 4.51L32.86 1.13L30.91 0.89Q30.82 0.53 30.91 0L30.91 0Q32.23 0.10 34.25 0.10L34.25 0.10Q36.07 0.10 37.63 0.02L37.63 0.02Q37.78 0.46 37.63 0.89L37.63 0.89L35.64 1.18L39.05 11.62Q39.84 14.21 40.15 15.67ZM59.16 3.98L59.16 3.98L59.16 16.58Q59.16 19.92 57.84 21.94Q56.52 23.95 54.55 23.95L54.55 23.95Q52.87 23.95 52.12 23.32Q51.36 22.68 51.34 21.17L51.34 21.17Q51.50 20.52 52.63 20.52L52.63 20.52Q53.16 20.52 53.81 20.66L53.81 20.66Q53.93 22.06 54.11 22.51Q54.29 22.97 54.77 22.97L54.77 22.97Q55.82 22.97 56.21 21.59Q56.59 20.21 56.59 17.26L56.59 17.26L56.59 1.13L54.41 0.89Q54.31 0.53 54.41 0L54.41 0Q55.73 0.07 57.38 0.07L57.38 0.07Q59.52 0.07 61.25 0L61.25 0Q61.39 0.43 61.25 0.86L61.25 0.86L59.26 1.18Q59.16 2.09 59.16 3.98Z"/></svg>