<svg xmlns="http://www.w3.org/2000/svg" viewBox="0 0 132.4 132.4"><circle cx="66.19999999999999" cy="66.19999999999999" r="66.19999999999999" fill="#ffffff"/><path fill="#353434" fill-rule="nonzero" d="M3.72 25.48L3.72 25.48L3.72 1.88L0.48 1.44Q0.24 0.72 0.48 0L0.48 0L5.96 0.12L22.12 0.12L22.16 9.40Q21.28 9.56 20.68 9.40L20.68 9.40L18.80 2.16L8 2.16L8 14.16L14.40 14.04L15.32 10.12Q15.92 9.96 16.80 10.12L16.80 10.12Q16.64 12.36 16.64 15.28L16.64 15.28Q16.64 17.96 16.76 20.48L16.76 20.48Q16.04 20.72 15.32 20.48L15.32 20.48L14.44 16.32L8 16.20L8 29.92L20 29.92L21.88 22.68Q22.48 22.52 23.36 22.68L23.36 22.68L23.32 31.96L5.96 31.96L0.24 32.08Q0 31.36 0.24 30.64L0.24 30.64L3.56 30.20Q3.72 28.16 3.72 25.48ZM57.08 26.12L57.08 26.12L57.16 26.12Q57.56 24.48 59.08 19.48L59.08 19.48L64.64 1.88L61.40 1.48L61.40 0Q63.60 0.16 65.64 0.16L65.64 0.16Q67.40 0.16 69.96 0.04L69.96 0.04L69.96 1.48L67.32 1.96Q66.68 2.92 65.72 5.52L65.72 5.52L56.64 33.16L55.60 33.16L47.92 10.76L39.52 33.20L38.44 33.16L28.08 1.88L24.84 1.48Q24.68 0.88 24.84 0L24.84 0Q27.04 0.16 30.56 0.16L30.56 0.16Q33.80 0.16 36.36 0.04L36.36 0.04Q36.60 0.76 36.36 1.48L36.36 1.48L33.04 1.96L38.32 19.68Q39.32 23.28 40.04 26.44L40.04 26.44L40.12 26.44Q40.92 23.80 42.44 19.68L42.44 19.68L46.84 7.52L44.92 1.88L41.68 1.48Q41.52 0.88 41.68 0L41.68 0Q43.88 0.16 47.24 0.16L47.24 0.16Q50.28 0.16 52.88 0.04L52.88 0.04Q53.12 0.76 52.88 1.48L52.88 1.48L49.56 1.96L55.24 19.36Q56.56 23.68 57.08 26.12ZM78.92 6.64L78.92 6.64L78.92 27.64Q78.92 33.20 76.72 36.56Q74.52 39.92 71.24 39.92L71.24 39.92Q68.44 39.92 67.18 38.86Q65.92 37.80 65.88 35.28L65.88 35.28Q66.16 34.20 68.04 34.20L68.04 34.20Q68.92 34.20 70 34.44L70 34.44Q70.20 36.76 70.50 37.52Q70.80 38.28 71.60 38.28L71.60 38.28Q73.36 38.28 74 35.98Q74.64 33.68 74.64 28.76L74.64 28.76L74.64 1.88L71 1.48Q70.84 0.88 71 0L71 0Q73.20 0.12 75.96 0.12L75.96 0.12Q79.52 0.12 82.40 0L82.40 0Q82.64 0.72 82.40 1.44L82.40 1.44L79.08 1.96Q78.92 3.48 78.92 6.64Z" transform="translate(24.999999999999993, 46.23999999999999)"/></svg>